<svg width="163" height="514" viewBox="0 0 163 514" fill="none" xmlns="http://www.w3.org/2000/svg">
<path d="M5.20249 481.711L124.349 439.814L5.20249 398.353L5.20249 366.711L160.136 425.412L160.136 454.434L5.2025 513.353L5.20249 481.711ZM160.136 353.012L45.7907 353.012L45.7907 323.771L160.136 323.771L160.136 353.012ZM29.8609 353.012L0.83817 353.012L0.838169 323.771L29.8609 323.771L29.8609 353.012ZM162.318 244.366C162.318 253.531 160.791 261.823 157.736 269.242C154.535 276.661 150.244 282.99 144.861 288.227C139.333 293.464 133.077 297.538 126.094 300.447C118.966 303.211 111.474 304.593 103.618 304.593C92.7072 304.593 82.742 302.193 73.7224 297.392C64.7028 292.446 57.5016 285.463 52.119 276.443C46.5908 267.278 43.8267 256.513 43.8267 244.147C43.8267 231.636 46.5908 220.944 52.119 212.07C57.5016 203.195 64.7028 196.431 73.7224 191.775C82.5965 186.975 92.198 184.574 102.527 184.574C104.273 184.574 106.091 184.647 107.982 184.792C109.728 184.938 111.183 185.083 112.347 185.229L112.347 273.606C118.166 273.025 123.257 271.352 127.622 268.588C131.986 265.678 135.332 262.041 137.66 257.677C139.842 253.167 140.933 248.366 140.933 243.274C140.933 237.455 139.551 232 136.787 226.908C133.877 221.671 130.095 218.107 125.44 216.216L132.423 191.121C138.242 193.885 143.406 197.885 147.916 203.123C152.426 208.214 155.99 214.252 158.608 221.235C161.082 228.218 162.318 235.928 162.318 244.366ZM93.7983 274.261L93.7983 214.47C87.9792 215.052 82.9602 216.725 78.7413 219.489C74.377 222.107 71.031 225.599 68.7034 229.963C66.2303 234.328 64.9937 239.201 64.9937 244.584C64.9937 249.821 66.2303 254.622 68.7034 258.986C71.031 263.205 74.377 266.696 78.7413 269.46C82.9602 272.079 87.9792 273.679 93.7983 274.261ZM45.7907 28.1167L45.7907 0.403233L160.136 48.1926L160.136 72.6328L111.037 91.8358L160.136 110.602L160.136 135.261L45.7907 182.832L45.7907 155.337L132.204 121.295L94.8893 107.984L46.0089 127.841L46.0089 103.619L80.9235 91.8358L46.0089 79.8339L46.0089 55.6119L94.8893 75.4696L132.204 61.9402L45.7907 28.1167Z" fill="#E5F2E1"/>
</svg>
